# xmcd
#
# Track frame offsets:
#	183
#	14393
#	26790
#	38288
#	55523
#	70903
#	85530
#	100235
#	112168
#	127568
#	140030
#	152673
#	162340
#	177080
#	192485
#	201863
#	213160
#	228833
#	241660
#	254385
#
# Disc length: 3565 seconds
#
# Revision: 0
# Processed by: cddbd v1.5.2PL0 Copyright (c) Steve Scherf et al.
# Submitted via: audiograbber 1.83.01
#
DISCID=fd0deb14
DTITLE=Various Artist - COUNTRY RAIN     CD 2
DYEAR=1900
DGENRE=Country
TTITLE0=ANNE MURRAY - RAININ IN MY HEART
TTITLE1=GLEN CAMPBELL - IF YOU COULD READ MY MIND
TTITLE2=CHET ATKINS - A LITTLE BITTY TEAR
TTITLE3=EUGENEHAVENGA and MARITZA - LEAVIN ME
TTITLE4=ELVIS PRESLEY - THAT'S WHEN YOUR HEARTACHES BEGIN
TTITLE5=BILLIE JO SPEARS - (HEY WON'T YOU PLAY) ANOTHER SOMEBODY DONE SOMEBODY 
TTITLE5=WRONG SONG
TTITLE6=DOLLY PARTON - YOU'RE THE ONLY ONE
TTITLE7=EDDY ARNOLD - I LOVE HOW YOU LOVE ME
TTITLE8=CRYSTAL GAYLE - WHEN I DREAM
TTITLE9=SIAS REINECKE - DAAR'S LIEFDE IN MY DROME
TTITLE10=FLOYD CRAMER` - THE MOST BEAUTIFUL GIRL
TTITLE11=VIRGINIA LEE - EK SAL JOU NOOIT VERGEET NIE
TTITLE12=ANNE MURRAY and GLEN CAMBELL - LET ME BE THE ONE
TTITLE13=BLES BRIDGES - MAGGIE
TTITLE14=ANNE MURRAY - HEAVEN IS HERE
TTITLE15=JIM REEVES and DOTTIE WEST - LOVE IS NO EXCUSE
TTITLE16=CHET ATKINS and LES PAUL - IT'S BEEN A LONG, LONG TIME
TTITLE17=CONWAY TWITTY and LORETTA LYNN - IT'S TRUE LOVE
TTITLE18=KEN MULLAN - I REMEMBER YOU
TTITLE19=BILLIE JO SPEARS - WHAT THE WORLD NEEDS NOW IS LOVE
EXTD=
EXTT0=
EXTT1=
EXTT2=
EXTT3=
EXTT4=
EXTT5=
EXTT6=
EXTT7=
EXTT8=
EXTT9=
EXTT10=
EXTT11=
EXTT12=
EXTT13=
EXTT14=
EXTT15=
EXTT16=
EXTT17=
EXTT18=
EXTT19=
PLAYORDER=
